<svg width="26" height="26" viewBox="0 0 26 26" fill="none" xmlns="http://www.w3.org/2000/svg"><g clip-path="url(#clip0_1381_2836)"><path d="M5.76215 15.7122L4.85713 19.0908L1.54929 19.1607C0.560727 17.3272 0 15.2294 0 13.0001C0 10.8443 0.524266 8.81147 1.45356 7.02148H1.45427L4.39918 7.56139L5.68923 10.4886C5.41922 11.2758 5.27206 12.1208 5.27206 13.0001C5.27216 13.9543 5.44502 14.8687 5.76215 15.7122Z" fill="#FBBB00"/><path d="M25.7722 10.5715C25.9215 11.3579 25.9994 12.1701 25.9994 13.0001C25.9994 13.9308 25.9015 14.8387 25.7151 15.7144C25.0823 18.6944 23.4287 21.2965 21.138 23.138L21.1373 23.1373L17.428 22.948L16.903 19.6708C18.423 18.7794 19.6109 17.3844 20.2366 15.7144H13.2852V10.5715H20.338H25.7722Z" fill="#518EF8"/><path d="M21.1374 23.1371L21.1381 23.1378C18.9103 24.9285 16.0802 26 12.9995 26C8.04883 26 3.74456 23.2329 1.54883 19.1607L5.76169 15.7122C6.85953 18.6421 9.68596 20.7279 12.9995 20.7279C14.4238 20.7279 15.7581 20.3428 16.9031 19.6707L21.1374 23.1371Z" fill="#28B446"/><path d="M21.2974 2.99284L17.086 6.44069C15.901 5.69999 14.5003 5.27211 12.9996 5.27211C9.61098 5.27211 6.73168 7.45352 5.68884 10.4886L1.45384 7.02142H1.45312C3.61671 2.85 7.97527 0 12.9996 0C16.1538 0 19.046 1.12359 21.2974 2.99284Z" fill="#F14336"/></g><defs><clipPath id="clip0_1382_2836"><rect width="26" height="26" fill="white"/></clipPath></defs></svg>