<svg class="eye-open" xmlns="http://www.w3.org/2000/svg" width="20" height="20" fill="#8ea5c8"><path d="M19.873 9.611c-.179-.244-4.436-5.985-9.873-5.985S.305 9.367.127 9.611a.66.66 0 0 0 0 .778c.178.244 4.436 5.985 9.873 5.985s9.694-5.74 9.873-5.984a.66.66 0 0 0 0-.778zM10 15.055c-4.005 0-7.474-3.81-8.501-5.055C2.525 8.753 5.986 4.945 10 4.945c4.005 0 7.473 3.809 8.501 5.055-1.025 1.247-4.487 5.054-8.501 5.054zm0-9.011A3.96 3.96 0 0 0 6.044 10 3.96 3.96 0 0 0 10 13.956 3.96 3.96 0 0 0 13.956 10 3.96 3.96 0 0 0 10 6.044zm0 6.593A2.64 2.64 0 0 1 7.363 10 2.64 2.64 0 0 1 10 7.363 2.64 2.64 0 0 1 12.637 10 2.64 2.64 0 0 1 10 12.637z"/></svg>